<?xml version="1.0" standalone="no"?>
<!DOCTYPE svg PUBLIC "-//W3C//DTD SVG 1.1//EN" "http://www.w3.org/Graphics/SVG/1.1/DTD/svg11.dtd" >
<!--
2013-9-30: Created.
-->
<svg>
<metadata>
Created by iconfont
</metadata>
<defs>

<font id="iconfont" horiz-adv-x="1024" >
  <font-face
    font-family="iconfont"
    font-weight="500"
    font-stretch="normal"
    units-per-em="1024"
    ascent="896"
    descent="-128"
  />
    <missing-glyph />
    
    <glyph glyph-name="x" unicode="x" horiz-adv-x="1001"
d="M281 543q-27 -1 -53 -1h-83q-18 0 -36.5 -6t-32.5 -18.5t-23 -32t-9 -45.5v-76h912v41q0 16 -0.5 30t-0.5 18q0 13 -5 29t-17 29.5t-31.5 22.5t-49.5 9h-133v-97h-438v97zM955 310v-52q0 -23 0.5 -52t0.5 -58t-10.5 -47.5t-26 -30t-33 -16t-31.5 -4.5q-14 -1 -29.5 -0.5
t-29.5 0.5h-32l-45 128h-439l-44 -128h-29h-34q-20 0 -45 1q-25 0 -41 9.5t-25.5 23t-13.5 29.5t-4 30v167h911zM163 247q-12 0 -21 -8.5t-9 -21.5t9 -21.5t21 -8.5q13 0 22 8.5t9 21.5t-9 21.5t-22 8.5zM316 123q-8 -26 -14 -48q-5 -19 -10.5 -37t-7.5 -25t-3 -15t1 -14.5
t9.5 -10.5t21.5 -4h37h67h81h80h64h36q23 0 34 12t2 38q-5 13 -9.5 30.5t-9.5 34.5q-5 19 -11 39h-368zM336 498v228q0 11 2.5 23t10 21.5t20.5 15.5t34 6h188q31 0 51.5 -14.5t20.5 -52.5v-227h-327z" />
    

    
    <glyph glyph-name="jiangbei" unicode="&#58903;" d="M925.227416 665.737686 925.227416 665.737686l-93.14133 0L832.086086 792.349315c0 19.073404-15.143908 34.217313-34.694173 34.217313L226.355331 826.566628c-19.048845 0-34.469046-15.143908-34.469046-34.217313l0-126.611629-93.366458 0c-18.821671 0-34.217313-15.390525-34.217313-34.217313l0-190.186574c0-54.520731 22.00313-104.628966 57.922201-140.801816l0.251733 0c31.53932-31.53932 73.566506-53.04103 120.498398-58.172911 51.839669-80.172971 138.601708-135.417179 234.668671-145.704476l0-86.284155L327.806931 10.370441c-18.820648 0-34.469046-15.393595-34.469046-34.469046 0-18.571984 15.647375-34.465976 34.469046-34.465976l368.385115 0c18.823718 0 34.694173 15.893992 34.694173 34.465976 0 19.075451-15.870456 34.469046-34.694173 34.469046L546.579563 10.370441l0 86.284155c95.821369 10.287297 182.853561 65.531506 234.668671 145.704476 45.706995 5.132904 87.032192 25.908066 118.322849 56.471153l1.951445 1.701758c35.921117 36.172851 58.173934 86.282109 58.173934 140.801816L959.696462 631.520373C959.696462 650.346137 944.302867 665.737686 925.227416 665.737686L925.227416 665.737686zM171.612543 348.943576 171.612543 348.943576c-23.953551 24.428366-38.373982 56.444547-38.373982 92.390223L133.23856 597.051327l58.647725 0 0-187.506535c0.753153-29.089525 5.132904-57.422827 13.219069-85.534072C192.387705 330.344986 181.148733 338.904942 171.612543 348.943576L171.612543 348.943576zM763.175623 411.745924 763.175623 411.745924l0-2.428306c-0.750083-38.373982-10.764158-76.519768-28.359908-110.262266l-0.50142-1.453095c-43.503816-80.924077-129.560798-133.715421-222.452441-133.715421-92.865038 0-178.924065 52.791343-221.951021 133.715421l-0.975211 1.453095c-18.073634 34.969443-27.384697 72.867588-27.861558 112.690572l0 0.249687 0 2.929726L261.074064 757.631606 763.175623 757.631606 763.175623 411.745924 763.175623 411.745924zM890.76144 441.3338 890.76144 441.3338c0-35.945677-14.669094-67.961858-38.124296-92.390223l-1.474584-1.476631c-9.761318-9.287527-20.525476-17.59882-32.267914-23.455201 8.311293 28.111245 12.465916 56.444547 13.192464 85.534072l0 1.723248L832.087109 597.051327l58.674331 0L890.76144 441.3338 890.76144 441.3338zM552.915875 519.932925l-28.65769 88.731904c-1.281179 3.738138-4.198625 6.936993-8.217149 8.299013-6.756891 2.196015-14.057157-1.728364-16.337083-8.299013l-28.667923-88.731904-93.189426 0.094144c-4.018523 0-8.03807-1.823532-10.402931-5.384637-4.2897-5.570879-2.924609-13.599739 2.728134-17.797341l75.767638-54.771441-29.031197-88.627527 0 0c-1.460258-3.832282-0.728594-8.123005 1.738597-11.68411 4.198625-5.570879 12.31856-6.935969 17.983583-2.64627l75.392084 54.858422 74.849732-54.588269c3.289929-2.6432 7.851828-3.466961 12.04943-2.185782 6.756891 2.185782 10.590196 9.488095 8.215102 16.244986l-29.020964 88.627527 75.205842 54.408167c3.477194 2.375094 5.757121 6.299473 5.757121 10.766205l0 0c0 7.123234-5.757121 12.778024-12.870122 12.778024L552.915875 519.932925zM555.47721 457.411987 555.47721 457.411987c-4.571109-3.372817-6.207375-9.309016-4.571109-14.328333l19.532869-60.063981-50.931996 37.154201c-4.560876 3.469008-10.766205 3.374864-15.151072 0l0 0-50.847062-37.154201 19.535939 60.063981c1.914606 5.476735-0.36532 11.494799-5.018294 14.59951l-50.566676 36.603663 62.97938-0.179079c5.934153 0 11.141758 4.198625 12.412704 9.769504l19.169595 59.147098 19.358907-59.969836c1.820462-5.570879 6.747681-8.851599 12.226462-8.851599l0-0.094144 62.894446 0.179079L555.47721 457.411987 555.47721 457.411987z"  horiz-adv-x="1024" />

    
    <glyph glyph-name="saiche" unicode="&#58899;" d="M862.914877 759.602175c-59.451872 10.239887-120.701483 1.908404-180.144321-3.954575-59.223767-5.842653-121.062838-12.992958-179.740056 0.896611-69.091007 16.353556-112.799109 61.642584-145.029684 123.005119-8.887066-24.043634-17.771873-48.08501-26.65668-72.130903-58.132928-157.293157-116.263597-314.586315-174.394266-471.879472L0-89.149859l60.612724-22.401729 141.246753 382.193509c26.214021-27.966591 58.577845-48.274721 100.124595-58.108084 58.672701-13.880535 120.518547-6.743781 179.737797-0.89887 59.438321 5.874271 120.694708 14.198979 180.14658 3.956833 76.394888-13.157826 125.755931-58.914357 161.080606-126.182781 67.02451 181.334533 134.035469 362.671325 201.050946 544.010375C988.66855 700.690076 939.321057 746.439832 862.914877 759.602175zM870.365558 436.743097c-29.888546 25.224812-61.974579 42.093298-100.659852 49.530429-12.907136-34.911375-25.809755-69.82275-38.712374-104.734125 38.689789-7.441647 70.769048-24.310133 100.664369-49.532687-11.832106-32.016021-23.66647-64.0343-35.496318-96.043546-29.888546 25.222554-61.979096 42.102332-100.666627 49.52817 11.832106 32.018279 23.66647 64.0343 35.498576 96.048063-39.392173 6.353066-77.856115 6.316931-117.602867 3.884562-11.829847-32.016021-23.66647-64.0343-35.496318-96.048063-41.126675-3.322204-82.113325-8.040141-123.237741-11.35557 11.829847 32.020538 23.664212 64.0343 35.494059 96.043546-39.746752-2.434627-78.212953-2.475279-117.605126 3.882304-11.832106-32.016021-23.664212-64.032042-35.496318-96.043546-38.683014 7.430355-70.782598 24.307875-100.664369 49.534946 11.829847 32.011504 23.664212 64.029784 35.494059 96.041288 29.893062-25.227071 61.976837-42.097815 100.666627-49.532687 12.900361 34.911375 25.807497 69.827267 38.707857 104.738642-38.687531 7.419062-70.775823 24.31465-100.666627 49.52817 12.904878 34.915892 25.807497 69.831784 38.710116 104.743159 29.893062-25.233846 61.976837-42.086523 100.664369-49.534946 11.832106 32.016021 23.664212 64.029784 35.496318 96.041288 39.392173-6.353066 77.862891-6.316931 117.605126-3.877787-11.829847-32.013763-23.664212-64.029784-35.496318-96.043546 41.124416 3.322204 82.111066 8.035624 123.237741 11.35557 11.829847 32.013763 23.66647 64.029784 35.496318 96.045805 39.751269 2.434627 78.208436 2.473021 117.602867-3.882304-11.832106-32.016021-23.664212-64.029784-35.496318-96.048063 38.689789-7.439389 70.769048-24.303358 100.666627-49.52817C896.173055 506.570364 883.274953 471.654472 870.365558 436.743097zM528.858323 478.802519c-12.902619-34.913634-25.805238-69.825009-38.710116-104.738642 41.126675 3.324463 82.115583 8.040141 123.24 11.360086 12.902619 34.909117 25.805238 69.82275 38.707857 104.734125C610.967131 486.835884 569.982739 482.120206 528.858323 478.802519zM528.858323 478.802519c12.904878 34.911375 25.807497 69.827267 38.710116 104.736384-39.758044-2.427851-78.208436-2.468504-117.609643 3.880045-12.902619-34.911375-25.805238-69.825009-38.707857-104.736384C450.64537 476.322723 489.107054 476.361116 528.858323 478.802519zM690.803921 594.894472c-12.902619-34.911375-25.805238-69.82275-38.707857-104.736384 39.751269 2.427851 78.208436 2.468504 117.605126-3.884562 12.900361 34.911375 25.805238 69.825009 38.705599 104.736384C769.014616 597.365234 730.55519 597.333616 690.803921 594.894472z"  horiz-adv-x="1024" />

    
    <glyph glyph-name="shuju" unicode="&#58921;" d="M853.858598 519.099085 735.373331 341.371174C755.661843 318.721043 768 288.801389 768 256 768 185.307552 710.692448 128 640 128 569.307552 128 512 185.307552 512 256 512 279.737875 518.461741 301.966528 529.722211 321.022957L449.022955 401.722208C429.966531 390.461741 407.737876 384 384 384 369.235641 384 355.055128 386.499744 341.858602 391.099085 284.134136 304.512384 274.63489 290.263514 223.373329 213.371174 243.661846 190.721043 256 160.801389 256 128 256 57.307552 198.692448 0 128 0 57.307552 0 0 57.307552 0 128 0 198.692448 57.307552 256 128 256 142.764359 256 156.944872 253.500256 170.141398 248.900915 221.391763 325.776467 230.892274 340.027232 288.626671 426.628826 268.338154 449.278957 256 479.198611 256 512 256 582.692448 313.307552 640 384 640 454.692448 640 512 582.692448 512 512 512 488.262125 505.538259 466.033472 494.277789 446.977043L574.977045 366.277792C594.033469 377.538259 616.262124 384 640 384 654.764358 384 668.94487 381.500256 682.141402 376.900915L800.626669 554.628826C780.338157 577.278957 768 607.198611 768 640 768 710.692448 825.307552 768 896 768 966.692448 768 1024 710.692448 1024 640 1024 569.307552 966.692448 512 896 512 881.235642 512 867.05513 514.499744 853.858598 519.099085Z"  horiz-adv-x="1025" />

    
    <glyph glyph-name="xuanzhong-copy" unicode="&#58882;" d="M-22.141-142.343h1048.79v1048.79l-1048.79-1048.79zM905.782 325.517l-269.021-315.807c0 0-19.494-27.291-46.785 0l-116.965 155.954c0 0-15.596 19.494 3.899 35.090 7.798 3.899 19.494 11.695 35.090-3.899l105.269-81.875 257.324 237.829c0 0 15.596 15.596 31.19 3.899 7.798-3.899 11.695-15.596 0-31.19z"  horiz-adv-x="1024" />

    
    <glyph glyph-name="guanli" unicode="&#59123;" d="M367.563911 141.553497l-257.912926 0c-29.719803 0-53.889036 24.169233-53.889036 53.889036L55.761949 245.69405900000004c0 17.271436 8.325856 33.572869 22.283116 43.623175 7.221131 5.254181 15.978099 10.427528 23.360897 13.768649l182.010219 98.697769 17.217547 24.788957-16.840324-21.016724c-64.181842 51.464029-87.48885 152.640694-87.48885 208.119457l0 118.582824c0 79.594106 107.751127 163.741836 209.601405 163.741836 100.556941 0 206.906954-84.174674 206.906954-163.741836l0-118.582824c0-14.684762-2.317229-145.33873-82.71967-208.523625 1.212503-14.819485-10.211972-28.857579-25.058402-30.097027-14.819485-1.239448-28.264799 8.783913-29.504247 23.603398-1.562782 18.861163 6.358906 37.102601 21.205336 48.850411 49.20069 38.665383 62.187947 125.615343 62.187947 166.193787l0 118.582824c0 41.38678-71.510751 109.8528-153.017918 109.8528-80.294664 0-155.712369-68.519909-155.712369-109.8528l0-118.582824c0-46.560127 20.882001-128.848685 67.307406-166.059064 14.738651-11.855588 22.498673-30.123971 20.801168-48.9043C336.523827 379.95859199999995 325.638241 363.41465800000003 309.094307 354.41518900000005l-183.788557-99.559994c-5.766127-2.694452-11.370587-6.035572-15.681709-9.161136l0-50.251526 257.912926 0c14.873374 0 26.944518-12.0442 26.944518-26.944518S382.437285 141.553497 367.563911 141.553497zM772.755573-76.67015400000003l5.550571 25.139235c0.754447 0.29639 1.535838 0.619724 2.290284 0.943058l20.774223-13.229758c23.522564-16.355322 59.008494-14.954207 78.300769 4.445845l21.420892 21.420892c18.995885 18.995885 20.531723 49.658747 4.068622 75.74104l-13.71476 22.90284c0.215556 0.565835 0.458057 1.104725 0.673613 1.67056l25.139235 6.278073c30.662861 7.059464 51.221529 29.773692 51.221529 56.583488l0 30.312583c0 31.84842-26.917573 53.91598-51.194584 58.307937l-24.465622 5.415848c-0.431112 1.077781-0.862225 2.155561-1.347226 3.233342l13.364481 22.283116c16.732546 26.648128 15.196708 57.284045-3.745288 76.226041l-21.474781 21.474781c-19.373108 19.373108-55.829041 19.992832-77.384656 5.01168l-21.609503-13.768649c-0.862225 0.377223-1.751394 0.727502-2.667507 1.104725l-5.30807 23.926732c-4.526679 25.327847-26.54035 52.272365-58.469604 52.272365L683.919497 411.025621c-26.809795 0-49.550969-20.585612-56.448765-50.709583L621.219604 335.284581C619.522099 334.61096799999996 617.878483 333.91041099999995 616.180979 333.182909L594.733142 346.84377900000004c-23.441731 16.301433-58.927661 14.954207-78.273825-4.418901L495.038426 321.00398600000005c-18.995885-18.968941-20.504778-49.604858-4.068622-75.794929l14.819485-24.735068C505.627621 220.04287799999997 505.43901 219.63870999999995 505.277343 219.23454200000003l-23.441731-5.227236c-25.327847-4.580568-52.218476-26.648128-52.218476-58.496549l0-30.312583c0-26.782851 20.585612-49.524024 50.736527-56.47571l25.381736-6.305017-14.496151-24.169233c-16.678657-26.621184-15.169764-57.230156 3.799177-76.199097l21.367003-21.340058c19.373108-19.480886 55.802097-20.208388 77.465489-5.065569l22.390894 14.280595c1.724449-0.754447 3.475843-1.508893 5.200292-2.182506l6.089461-24.357844c7.059464-30.662861 29.773692-51.221529 56.583488-51.221529L714.447636-127.83779400000003C746.269112-127.89168299999994 768.363616-100.97411 772.755573-76.67015400000003zM599.933434 3.382009000000039L564.016392-19.574720999999954c-1.535838-1.050836-4.526679-2.20945-9.457526-1.697505l-20.962835 20.558667c-0.29639 1.239448 0.377223 5.658349 3.556676 10.750863l22.148394 36.940934c4.715291 7.867799 5.092514 17.567826 1.050836 25.785904-3.583621 7.27502-6.331962 13.984205-8.460579 20.558667-2.856119 8.837802-10.07725 15.573931-19.103663 17.837271l-39.904831 9.942527c-5.388904 1.239448-8.999469 3.906955-9.403637 4.041678l0 30.258694c0.323334 1.455004 4.122511 4.850013 8.999469 5.739182l38.880939 8.622246c9.430581 2.101672 17.028935 9.080303 19.885054 18.322272 2.101672 6.763074 5.065569 14.011149 9.080303 22.121449 4.041678 8.218078 3.664454 17.918104-1.050836 25.785904L536.883262 273.366079C533.973254 278.02747999999997 533.299641 282.47332600000004 533.11103 282.87749299999996l23.792009 21.798115c2.80223 0 5.658349-1.077781 8.002522-2.694452l34.973984-22.283116c8.164189-5.146403 18.510884-5.631404 27.079241-1.077781 8.029466 4.230289 16.436156 7.786966 25.085346 10.535307 8.918635 2.829174 15.708654 10.07725 17.971993 19.130608l9.861694 39.446774C681.090323 353.06796299999996 683.730885 356.67852800000003 683.919497 357.109641L714.178191 357.109641c1.428059-0.323334 4.796124-4.068622 5.685293-8.972524l8.730024-39.365941C730.668236 299.44837199999995 737.512143 291.93085199999996 746.565501 288.99389900000006 754.594968 286.38028099999997 762.570545 283.03916100000004 770.249733 279.051372c8.514468-4.445845 18.780329-3.9339 26.863684 1.185559l35.000929 22.337005c1.508893 1.023892 4.418901 2.155561 9.457526 1.724449l20.962835-20.639501c0.29639-1.212503-0.377223-5.658349-3.583621-10.750863l-21.043669-35.054818c-4.796124-7.975577-5.119458-17.864215-0.889169-26.163127 4.203345-8.164189 7.409742-15.92421 9.861694-23.711176 2.883063-9.188081 10.481417-16.112822 19.85811-18.214494l39.904831-8.810857c3.853066-0.700557 7.652243-4.095567 7.975577-5.496682l0.242501-29.369525c-0.646668-1.104725-4.257234-3.772233-10.131139-5.092514l-39.41983-9.834749c-8.999469-2.26334-16.2206-8.972524-19.076719-17.756437-2.451951-7.463631-5.550571-14.900318-9.215025-22.040616-4.230289-8.271967-3.9339-18.160605 0.83528-26.136182l21.393947-35.674542c2.883063-4.607513 3.556676-8.999469 3.745288-9.430581l-23.765065-21.82506c-2.829174 0-5.631404 1.050836-8.029466 2.721396l-34.219538 21.798115c-8.083355 5.119458-18.349217 5.631404-26.863684 1.185559-7.517521-3.906955-15.358375-7.194186-23.307008-9.753916-9.080303-2.963897-15.897266-10.508362-17.971993-19.804221l-8.918635-40.470666c-0.700557-3.826122-4.068622-7.625299-5.523626-7.975577L685.078111-74.24514799999997c-1.104725 0.646668-3.772233 4.257234-5.092514 10.131139l-9.673082 38.82705c-2.290284 9.134192-9.188081 16.409211-18.18755 19.211441-8.298912 2.586674-16.490045 6.035572-25.112291 10.589196-3.9339 2.074728-8.271967 3.09862-12.58309 3.09862C609.364016 7.61229800000001 604.352335 6.18423800000005 599.933434 3.382009000000039zM817.591251 141.553497c0 65.259623-53.161534 118.367267-118.50199 118.367267-65.394345 0-118.555879-53.107645-118.555879-118.367267 0-65.232678 53.188478-118.313378 118.555879-118.313378C764.429717 23.240118000000052 817.591251 76.32081900000003 817.591251 141.553497zM763.702215 141.553497c0-35.512875-28.992301-64.424342-64.612954-64.424342-35.647597 0-64.666843 28.884523-64.666843 64.424342 0 35.539819 29.019246 64.478232 64.666843 64.478232C734.709913 206.00478399999997 763.702215 177.09331599999996 763.702215 141.553497z"  horiz-adv-x="1024" />

    
    <glyph glyph-name="rili" unicode="&#58947;" d="M406.60992 722.944 621.9776 722.944l0-42.27072L406.60992 680.67328 406.60992 722.944zM759.15264 722.944l56.64768 0c29.51168 0 55.84896-11.96032 74.99776-31.10912l0 0c19.1488-19.1488 31.08864-45.4656 31.08864-74.9568l0-548.02432c0-29.51168-11.93984-55.84896-31.08864-74.97728-19.16928-19.16928-45.48608-31.10912-74.99776-31.10912L207.9744-37.23264c-28.71296 0-55.05024 11.93984-74.17856 31.10912-19.1488 19.1488-31.1296 45.4656-31.1296 74.97728L102.66624 616.87808c0 29.4912 11.9808 55.808 31.1296 74.9568 19.1488 19.1488 45.4656 31.10912 74.17856 31.10912l59.02336 0 0-42.27072-59.02336 0c-16.75264 0-32.70656-7.168-44.66688-18.3296-11.1616-11.96032-18.35008-27.91424-18.35008-45.4656l0-548.02432c0-17.53088 7.18848-33.50528 18.35008-44.66688 11.96032-11.9808 27.91424-19.16928 44.66688-19.16928l607.82592 0c17.55136 0 33.50528 7.18848 44.68736 19.16928 11.96032 11.1616 19.1488 27.11552 19.1488 44.66688L879.63648 616.87808c0 17.53088-7.18848 33.4848-18.35008 45.4656l-0.79872 0c-11.18208 11.14112-27.11552 18.3296-44.68736 18.3296l-56.64768 0L759.15264 722.944zM689.78688 799.5392 689.78688 799.5392c23.92064 0 43.86816-19.94752 43.86816-44.66688l0-114.09408c0-23.90016-19.94752-43.86816-43.86816-43.86816l0 0c-24.73984 0-44.70784 19.98848-44.70784 43.86816L645.07904 754.85184C645.07904 779.5712 665.04704 799.5392 689.78688 799.5392L689.78688 799.5392zM645.07904 223.60064l110.87872 0 0-90.91072-110.87872 0L645.07904 223.60064zM267.79648 488.42752l110.08 0 0-90.9312-110.08 0L267.79648 488.42752zM468.02944 489.22624l110.87872 0 0-90.13248-110.87872 0L468.02944 489.22624zM645.07904 489.22624l110.87872 0 0-90.13248-110.87872 0L645.07904 489.22624zM645.87776 356.82304l110.87872 0 0-90.91072-110.87872 0L645.87776 356.82304zM468.80768 356.82304l110.8992 0 0-90.91072-110.8992 0L468.80768 356.82304zM268.5952 355.2256l110.87872 0 0-90.112-110.87872 0L268.5952 355.2256zM267.79648 222.80192l110.08 0 0-90.91072-110.08 0L267.79648 222.80192zM468.02944 223.60064l110.87872 0 0-90.91072-110.87872 0L468.02944 223.60064zM334.80704 799.5392 334.80704 799.5392c24.71936 0 44.66688-19.94752 44.66688-44.66688l0-114.09408c0-23.90016-19.94752-43.86816-44.66688-43.86816l0 0c-23.92064 0-43.86816 19.98848-43.86816 43.86816L290.93888 754.85184C290.93888 779.5712 310.8864 799.5392 334.80704 799.5392L334.80704 799.5392z"  horiz-adv-x="1024" />

    
    <glyph glyph-name="xinxi" unicode="&#58916;" d="M235.3 461.8a56 56 0 1 1 112 0 56 56 0 1 1-112 0zM459.3 461.8a56 56 0 1 1 112 0 56 56 0 1 1-112 0zM683.3 461.8a56 56 0 1 1 112 0 56 56 0 1 1-112 0zM907.3 797.8h-784c-30.9 0-56-25.1-56-56v-560c0-30.9 25.1-56 56-56h210l-36.6-146.4c-2-8.1 6.7-14.6 13.9-10.5l271.7 156.9h325c30.9 0 56 25.1 56 56v560c0 31-25.1 56-56 56z m0-588c0-15.5-12.5-28-28-28h-310l-194-112 28 112h-252c-15.5 0-28 12.5-28 28v504c0 15.5 12.5 28 28 28h728c15.5 0 28-12.5 28-28v-504z"  horiz-adv-x="1024" />

    
    <glyph glyph-name="tuichu" unicode="&#58937;" d="M952.3 431.8L793.9 590.2c-10.9 10.9-28.7 10.9-39.6 0-10.9-10.9-10.9-28.7 0-39.6L864.9 440H400.5v-56h474L754.3 263.8c-10.9-10.9-10.9-28.7 0-39.6 10.9-10.9 28.7-10.9 39.6 0l158.4 158.4c6.7 6.7 8.8 15.9 7.3 24.6 1.5 8.7-0.6 17.9-7.3 24.6zM624 76c0-15.5-12.5-28-28-28H148c-15.5 0-28 12.5-28 28V692c0 15.5 12.5 28 28 28h448c15.5 0 28-12.5 28-28v-196h56V720c0 30.9-25.1 56-56 56H120c-30.9 0-56-25.1-56-56v-672c0-30.9 25.1-56 56-56h504c30.9 0 56 25.1 56 56V328h-56v-252z"  horiz-adv-x="1024" />

    
    <glyph glyph-name="icon-system-fi-monitor" unicode="&#58935;" d="M924.686 558.095c-22.619 53.312-54.975 101.229-96.168 142.422s-89.111 73.549-142.423 96.168c-55.228 23.434-113.801 35.315-174.095 35.315-247.028 0-448.001-200.972-448.001-448.001s200.973-448 448.001-448c60.443 0 119.098 11.853 174.334 35.228 53.342 22.574 101.254 54.885 142.403 96.035 41.15 41.149 73.461 89.061 96.035 142.403 23.376 55.237 35.228 113.892 35.228 174.334 0.001 60.294-11.881 118.868-35.314 174.096zM711.677 352.015c6.817-14.864 18.028-27.004 32.404-35.112-26.971-91.958-105.523-159.573-199.512-172.065v74.997c32.66 6.442 62.168 22.161 85.802 45.793 23.773 23.774 39.537 53.496 45.907 86.386h35.399zM710.425 415.984h-34.147c-6.37 32.89-22.134 62.612-45.907 86.385-23.774 23.773-53.496 39.538-86.386 45.907v74.881c93.756-12.47 172.107-79.265 198.971-169.968-14.23-8.607-25.669-21.676-32.531-37.205zM543.984 1.835v78.162c62.509 6.569 120.466 31.745 168.122 73.125 24.199 21.013 44.844 45.542 61.358 72.903 15.846 26.255 27.549 54.567 34.826 84.237 20.18 6.987 36.65 21.862 45.632 41.169h39.657c-15.404-186.438-163.19-334.224-349.595-349.596zM772.862 542.929c-30.393 49.002-72.75 87.973-123.085 113.476 14.254-0.463-43.286 24.45-105.209 31.007v78.72c185.905-15.932 333.657-163.94 349.566-350.148h-38.739c-8.534 20.313-25.863 36.342-47.183 43.566-7.546 29.391-19.425 57.413-35.35 83.379zM389.941 592.353c27.947 16.336 57.775 26.671 88.906 30.81v-74.911c-32.409-6.393-61.784-22.156-85.385-45.905-23.679-23.827-39.386-53.539-45.74-86.364h-75.368c3.928 27.704 12.624 54.973 25.461 79.8 5.365-1.187 10.757-1.787 16.111-1.787 43.411 0 78.728 35.317 78.728 78.728 0 6.676-0.874 13.060-2.713 19.629zM314.51 652.038c-43.411 0-78.729-35.318-78.729-78.729 0-13.806 3.664-27.3 10.647-39.382-20.808-37.115-33.518-76.725-37.85-117.944h-78.742c15.37 186.203 163.398 334.217 350.18 350.15v-78.17c-46.909-5.111-91.441-20.491-129.651-44.794-11.388 5.89-23.421 8.869-35.855 8.869zM347.722 352.015c6.369-32.89 22.134-62.612 45.907-86.386 23.773-23.773 53.495-39.537 86.385-45.907v-74.896c-108.129 14.183-193.005 99.060-207.189 207.189h74.897zM479.431 80.557v-78.167c-186.42 14.853-334.21 162.657-349.597 349.625h78.171c7.377-69.319 38.407-134.322 87.974-183.89 49.562-49.561 114.406-80.445 183.452-87.568z"  horiz-adv-x="1024" />

    
    <glyph glyph-name="jiankong" unicode="&#58911;" d="M757.620364 0.837818H266.379636c-19.316364 0-35.095273-36.491636-35.095272-36.491636V-72.145455h561.408v36.491637c0.023273 20.107636-15.755636 36.491636-35.072 36.491636zM862.882909 840.145455H161.117091C103.005091 840.145455 55.854545 791.086545 55.854545 730.670545v-510.882909c0-60.439273 47.150545-109.474909 105.262546-109.474909h245.620364v-36.491636c0-20.107636 15.755636-36.491636 35.095272-36.491636h140.357818c19.316364 0 35.095273 18.804364 35.095273 36.491636V110.312727h245.620364c58.112 0 105.262545 49.035636 105.262545 109.474909V730.670545C968.145455 791.086545 920.994909 840.145455 862.882909 840.145455zM161.117091 256.279273c-19.316364 0-35.072 16.384-35.072 36.491636V730.670545c0 20.107636 15.755636 36.491636 35.072 36.491637h701.765818c19.316364 0 35.095273-16.384 35.095273-36.491637V292.770909c0-20.107636-15.755636-36.491636-35.095273-36.491636H161.117091zM767.906909 674.885818l-115.549091-120.180363-80.453818 83.665454a34.397091 34.397091 0 0 1-29.463273 10.379636 35.141818 35.141818 0 0 1-25.809454-18.059636l-104.308364-189.812364-43.170909 112.29091a35.444364 35.444364 0 0 1-25.530182 22.178909 34.024727 34.024727 0 0 1-31.860363-9.937455l-105.262546-109.474909a37.515636 37.515636 0 0 1 0-51.595636 34.117818 34.117818 0 0 1 49.617455 0l67.630545 70.353454 50.408727-131.095273a35.211636 35.211636 0 0 1 32.605091-22.923636c12.544 0 24.203636 6.958545 30.464 18.385455l117.573818 213.946181 72.773819-75.682909a34.141091 34.141091 0 0 1 49.617454 0l140.357818 145.966546a37.515636 37.515636 0 0 1 0 51.595636 34.187636 34.187636 0 0 1-49.640727 0z"  horiz-adv-x="1024" />

    
    <glyph glyph-name="shangchuan" unicode="&#59306;" d="M543.999 128.01H480c-17.672 0-31.999-14.326-31.999-31.998 0-17.673 14.327-31.999 32-31.999h63.997c17.672 0 31.999 14.326 31.999 31.999 0 17.672-14.327 31.999-32 31.999zM512 895.98C229.242 895.979 0.021 666.758 0.021 384S229.242-127.979 512-127.979 1023.979 101.242 1023.979 384 794.758 895.979 512 895.979z m0-959.96C264.587-63.98 64.02 136.587 64.02 384S264.586 831.98 512 831.98 959.98 631.414 959.98 384 759.414-63.98 512-63.98z m30.592 688.245c-16.482 18.953-43.207 18.953-59.689 0L333.683 452.68c-9.809-11.28-13.78-26.73-11.914-41.387 1.986-15.593 15.317-27.247 31.035-27.247h95.198v-160.039c0-17.672 14.327-31.999 32-31.999h63.997c17.672 0 31.999 14.327 31.999 32V384.044h96.693c15.718 0 29.048 11.654 31.035 27.246 1.867 14.656-2.105 30.106-11.917 41.388L542.592 624.264z"  horiz-adv-x="1024" />

    
    <glyph glyph-name="xialajiantouxiangxia" unicode="&#59282;" d="M0 657.49504l511.80032-486.21056L1023.60064 657.49504z"  horiz-adv-x="1024" />

    
    <glyph glyph-name="chedui" unicode="&#58883;" d="M513.467 329.728c-0.423 0.423-0.423 0.849-0.849 0.849l-15.655 15.231c12.695 2.963 26.657 13.962 26.657 24.964 0 13.12-17.771 17.771-33.007 17.771-16.079 0-17.771-11.003-18.194-18.619l-40.196 38.931c-8.041 8.041-23.699 14.386-35.121 14.386h-156.137c-11.421 0-27.082-6.348-35.121-14.386l-40.196-38.931c0 7.615-2.115 18.619-18.194 18.619-15.231 0-33.43-4.657-33.43-17.771 0-11.003 13.962-22.003 26.657-24.964l-15.655-15.231c-0.423-0.423-0.423-0.849-0.849-0.849-16.5-14.386-27.505-41.045-27.505-60.087v-57.122c0-13.962 5.498-26.657 14.386-35.966v-22.003c0-13.12 11.003-23.699 24.122-23.699h29.197c13.12 0 24.122 10.58 24.122 23.699v5.498h261.078v-5.498c0-13.12 10.58-23.699 24.122-23.699h29.197c13.12 0 24.122 10.58 24.122 23.699v22.003c8.885 9.306 14.386 22.003 14.386 35.966v57.122c-0.423 19.043-11.421 45.698-27.926 60.087zM220.65 391.079c5.498 4.657 15.655 8.464 20.31 8.464h156.137c5.074 0 14.809-3.385 20.31-8.464l52.468-51.199h-302.545l53.315 51.199zM115.294 278.101c0 13.962 11.003 25.388 24.541 25.388s57.547-26.234 57.547-40.196-44.005-11.003-57.547-11.003c-13.54 0.423-24.541 11.846-24.541 25.81zM188.916 185.008h-36.814c-7.615 2.541-13.12 5.074-16.926 8.041-2.115 1.692-3.385 2.963-4.657 4.657-1.27 1.692-2.115 2.963-2.541 4.657-3.385 9.731 3.809 18.619 3.809 18.619h46.969l31.313-36.389-21.161 0.423zM386.946 185.008h-135.828c-13.962 0-25.81 11.421-25.81 25.81h187.028c0.423-14.386-11.003-25.81-25.388-25.81zM392.873 228.593h-147.676c-15.231 0-27.926 19.043-27.926 42.736h203.534c0-23.699-12.271-42.736-27.926-42.736zM510.506 202.784c-0.423-1.692-1.27-2.963-2.541-4.657-1.27-1.692-2.541-2.963-4.657-4.657-3.809-2.963-9.306-5.923-16.926-8.041h-57.969l31.313 36.389h47.389c-0.423-0.423 6.771-9.306 3.385-19.043zM498.232 252.715c-13.54 0-57.547-3.385-57.547 11.003 0 13.962 44.005 40.196 57.547 40.196 13.54 0 24.541-11.421 24.541-25.388 0-14.386-11.003-25.81-24.541-25.81zM1627.173 330.991c-0.423 0.423-0.423 0.849-0.849 0.849l-15.655 15.231c12.695 2.963 26.657 13.962 26.657 24.964 0 13.12-17.771 17.771-33.007 17.771-16.079 0-17.771-11.003-18.194-18.619l-40.196 38.931c-8.041 8.041-23.699 14.386-35.121 14.386h-156.137c-11.421 0-27.082-6.348-35.121-14.386l-40.196-38.931c0 7.615-2.115 18.619-18.194 18.619-15.231 0-33.43-4.657-33.43-17.771 0-11.003 13.962-22.003 26.657-24.964l-15.655-15.231c-0.423-0.423-0.423-0.849-0.849-0.849-16.5-14.386-27.505-41.045-27.505-60.087v-57.122c0-13.962 5.498-26.657 14.386-35.966v-22.003c0-13.12 11.003-23.699 24.122-23.699h29.197c13.12 0 24.122 10.58 24.122 23.699v5.498h260.654v-5.498c0-13.12 10.58-23.699 24.122-23.699h29.197c13.12 0 24.122 10.58 24.122 23.699v22.003c8.885 9.306 14.386 22.003 14.386 35.966v57.122c0 19.043-11.003 45.698-27.505 60.087zM1334.359 392.35c5.498 4.657 15.655 8.464 20.31 8.464h156.137c5.074 0 14.809-3.385 20.31-8.464l52.468-51.199h-302.545l53.315 51.199zM1228.997 279.37c0 13.962 11.003 25.388 24.541 25.388s57.547-26.234 57.547-40.196-44.005-11.003-57.547-11.003c-13.54 0.423-24.541 11.846-24.541 25.81zM1302.625 186.279h-36.814c-7.615 2.541-13.12 5.074-16.926 8.041-2.115 1.692-3.385 2.963-4.657 4.657-1.27 1.692-2.115 2.963-2.541 4.657-3.385 9.731 3.809 18.619 3.809 18.619h47.389l31.313-36.389-21.583 0.423zM1500.655 186.279h-135.828c-13.962 0-25.81 11.421-25.81 25.81h187.028c0.423-14.386-11.003-25.81-25.388-25.81zM1506.581 229.441h-147.676c-15.231 0-27.926 19.043-27.926 42.736h203.534c0-23.274-12.271-42.736-27.926-42.736zM1624.212 204.052c-0.423-1.692-1.27-2.963-2.541-4.657-1.27-1.692-2.541-2.963-4.657-4.657-3.809-2.963-9.306-5.923-16.926-8.041h-57.969l31.313 36.389h47.389c-0.423-0.423 6.771-9.306 3.385-19.043zM1611.94 253.98c-13.54 0-57.547-3.385-57.547 11.003 0 13.962 44.005 40.196 57.547 40.196 13.54 0 24.541-11.421 24.541-25.388 0-14.386-11.003-25.81-24.541-25.81zM1206.571 469.787c-0.423 0.423-0.849 1.27-1.692 1.692l-26.657 25.81c22.003 5.074 45.698 23.699 45.698 42.311 0 22.003-30.467 30.042-56.705 30.042-27.082 0-30.467-18.619-30.891-32.154l-68.127 66.436c-13.962 13.962-40.196 24.541-60.087 24.541h-266.156c-19.463 0-46.124-11.003-60.087-24.541l-68.127-66.436c-0.423 13.12-3.385 32.154-30.891 32.154-26.234 0-56.705-8.041-56.705-30.042 0-19.043 23.699-37.657 45.698-42.311l-26.657-25.81c-0.423-0.423-0.849-1.27-1.692-1.692-28.349-24.541-46.969-69.396-46.969-102.4v-97.325c0-23.699 9.306-45.276 24.122-60.929v-37.657c0-22.003 18.194-40.196 41.045-40.196h49.505c22.426 0 41.045 18.194 41.045 40.196v9.731h444.299v-9.731c0-22.003 18.194-40.196 41.045-40.196h49.505c22.426 0 41.045 18.194 41.045 40.196v37.657c14.809 16.079 24.122 37.657 24.122 60.929v97.325c1.27 32.582-17.349 77.859-45.698 102.4zM707.687 574.302c9.731 8.041 26.234 13.962 34.695 13.962h266.156c8.464 0 24.964-5.923 34.695-13.962l89.707-87.588h-514.964l89.707 87.588zM528.277 382.193c0 24.122 18.619 43.583 41.889 43.583 22.849 0 98.17-44.427 98.17-68.553 0-24.122-75.319-18.619-98.17-18.619-23.274 0-41.889 19.463-41.889 43.583zM653.528 223.517h-63.046c-13.12 4.234-22.426 8.885-28.773 13.962-3.385 2.541-5.923 5.074-7.615 8.041-2.115 2.541-3.385 5.498-4.234 8.041-5.923 16.5 6.348 32.154 6.348 32.154h80.395l53.737-61.778-36.814-0.423zM991.191 223.517h-231.459c-24.122 0-43.583 19.463-43.583 44.005h318.622c0-24.541-19.463-44.005-43.583-44.005zM1001.349 297.143h-251.77c-26.234 0-47.389 32.582-47.389 72.78h346.555c0-40.196-21.161-72.78-47.389-72.78zM1201.495 253.137c-0.849-2.541-2.541-5.498-4.234-8.041-2.115-2.541-4.657-5.498-7.615-8.041-6.348-5.074-15.655-10.157-28.773-13.962h-99.019l53.737 61.778h80.395c-0.423 0.423 11.421-14.809 5.498-31.733zM1181.186 338.614c-22.849 0-98.17-5.498-98.17 18.619s75.319 68.553 98.17 68.553c22.849 0 41.889-19.463 41.889-43.583-0.423-24.122-19.043-43.583-41.889-43.583z"  horiz-adv-x="1755" />

    
    <glyph glyph-name="gaojing" unicode="&#59742;" d="M771.385609 40.488389H249.973238c-26.858718-0.962931-48.134277-23.01518-48.134277-49.891294 0-26.876114 21.275559-48.929386 48.134277-49.891294h523.911284c27.54331 0.070608 49.853431 22.38073 49.923016 49.92404 0 27.428699-22.430872 49.858548-52.421929 49.858548zM511.896646 609.131457c-138.812509 0-251.733325-115.163903-251.733325-256.796644v-286.659789H766.194376V352.976426c-2.820232 141.247978-116.895337 256.155031-254.29773 256.155031z m194.825221-483.983923h-387.086036V352.400305c0 108.754936 86.261643 197.259666 192.260815 197.259666 105.295138 0 192.645578-88.76158 194.825221-197.259666v-227.252771z m251.796769 324.535421c-2.498914 14.932084-14.995529 24.994254-29.928636 22.430872l-112.280226-19.930935c-14.995529-2.563382-24.993231-14.995529-22.430872-29.928636 2.435469-12.496615 14.932084-22.430872 27.428699-22.430872 0 0 2.498914 2.435469 2.498914 0l112.280226 19.86749c14.933107 2.563382 24.930809 14.996552 22.431895 29.992081z m-731.038691-27.428699c2.562359 12.43317-7.43432 27.428699-22.430872 29.928636l-112.280226 19.930935c-12.496615 2.564405-27.428699-7.433296-29.864168-22.430872-2.563382-12.496615 7.43432-27.428699 22.429848-29.928636l112.280226-19.99438h4.998851c12.43317 0 24.866341 9.997702 24.866341 22.430872v0.063445z m284.416701 236.992599c15.116279 0.104377 27.352975 12.313443 27.493168 27.428699V801.392272c0 15.165398-12.295024 27.460422-27.460422 27.460422-15.166421 0-27.461445-12.295024-27.461445-27.460422v-114.715695c0.070608-15.140839 12.289907-27.417443 27.428699-27.557636v0.127914z m-221.996047-62.355164a22.688745 22.688745 0 0 1 19.930935-9.998724c7.497765 0 12.496615 2.498914 19.930935 7.498787 9.997702 9.997702 12.496615 24.993231 2.562359 37.426401l-74.91727 87.285972c-9.997702 9.998725-24.993231 12.497639-37.426401 2.564406-12.497639-10.06217-12.497639-24.994254-4.998851-37.490869l74.91727-87.222528v-0.063445h0.001023z m406.631184-2.564405a26.921139 26.921139 0 0 1 17.495467-7.434319 22.687722 22.687722 0 0 1 19.930934 9.998724l74.853825 87.285973c9.203616 11.06808 7.90197 27.455305-2.931772 36.933167-10.832719 9.476839-27.248597 8.586562-36.993542-2.006704l-74.853825-87.285972a25.121144 25.121144 0 0 1 2.564405-37.426401l-0.065492-0.064468z"  horiz-adv-x="1024" />

    
    <glyph glyph-name="xialajiantouxiangxia1" unicode="&#58880;" d="M1024 110.5049600000001l-511.80032000000017 486.21055999999976L0.3993600000001152 110.50495999999976z"  horiz-adv-x="1024" />

    
    <glyph glyph-name="qiehuan" unicode="&#59892;" d="M626.176 37.888c-18.944 0-36.352 17.92-36.352 36.352 0 18.944 17.92 36.352 36.352 36.352h325.12V810.496h-699.392v-283.136c0-18.944-17.92-36.352-36.352-36.352-18.944 0-36.352 17.92-36.352 36.352v356.352h845.312v-845.312h-398.336zM327.68 151.04c-10.24 0-18.944 3.584-25.088 9.728l-1.024 1.024-0.512 1.024c-11.264 17.408-10.752 39.424 1.536 51.712l323.072 330.752H524.288c-17.92 0-36.352 12.288-36.352 36.352 0 18.944 17.92 36.352 36.352 36.352h231.424v-240.128c0-18.944-17.92-36.352-36.352-36.352-18.944 0-36.352 17.92-36.352 36.352v109.056l-327.168-327.168-1.024-0.512c-8.192-5.632-17.92-8.192-27.136-8.192zM0-115.712V729.6h143.872V656.896h-70.656v-699.392h699.392v49.664h73.216v-122.88z"  horiz-adv-x="1024" />

    
    <glyph glyph-name="guiji" unicode="&#58922;" d="M885.250787-127.991H197.044212a36.815105 36.815105 0 0 0-36.815105 36.885101c0 20.292955 23.783776 31.393384 44.075731 31.393384h682.622863c23.736778 0 40.306925 22.177858 40.306925 41.329872 0 19.153014-16.569147 49.684443-40.306925 49.684443H137.073299c-63.13675 0-113.774144 34.558221-113.774143 95.78507 0 61.20485 52.337306 109.586359 115.449057 109.586359h85.4756c20.293955 0 36.816105-16.546148 36.816105-36.862103 0-20.315954-16.52215-36.862103-36.815105-36.862102h-85.4756c-23.714779 0-41.842846-16.70914-41.842846-35.861155s16.429154-27.507584 40.166932-27.507584h749.853402c63.13675 0 113.774144-56.759078 113.774143-117.962928s-52.337306-109.608358-115.449057-109.608357zM648.464976 267.647634a61.529833 61.529833 0 0 0-5.468719-6.772651c-45.286669-55.316153-90.875322-92.620232-92.900218-94.202151l-31.765365-25.761674-31.928356 25.621681c-1.861904 1.581919-47.59055 38.46802-93.015212 93.923165a46.263619 46.263619 0 0 0-5.469719 6.60966c-53.198262 69.698412-144.073584 179.027785-163.621578 293.3599a307.114191 307.114191 0 0 0-3.444822 39.189982c-0.58097 80.355864 31.044402 155.685986 89.432396 212.14308A297.386692 297.386692 0 0 0 518.329674 896.00129c78.49496 0 152.545148-29.950458 208.489268-84.242664 57.783026-56.038115 89.293404-131.065253 88.711434-210.863146 0-1.722911-0.139993-16.407155-3.607814-40.747902-18.244061-106.863499-98.763916-207.396324-163.458586-292.499944zM518.050689 812.898568c-122.523693 0-222.871528-99.648871-221.730587-222.358555 0 0 0-11.101429 2.745859-29.532479 14.661245-85.685589 83.823685-169.928253 139.325828-242.232532a8.679553 8.679553 0 0 1 1.722911-2.164888c38.538016-47.519554 78.075981-79.215922 78.075981-79.215923s39.397972 32.115347 78.075981 79.635901c0.417978 0.441977 1.279934 1.302933 1.721912 2.163889 55.502143 72.746255 124.664583 156.546942 139.325828 242.535515 2.72286 18.431051 2.72286 29.53148 2.72286 29.53148 0.860956 122.686685-99.484879 221.637591-221.986573 221.637592z m0-369.690971c-74.050188 0-134.43908 58.899968-134.43908 131.483232s60.388892 131.484232 134.43908 131.484232 134.43908-58.899968 134.439079-131.483232-60.388892-131.484232-134.439079-131.484232z m0 198.296793a67.486526 67.486526 0 0 1-67.440529-67.673516 67.626519 67.626519 0 0 1 67.440529-67.696516c37.234083 0 67.41653 30.391436 67.416529 67.696516a67.486526 67.486526 0 0 1-67.416529 67.673516z"  horiz-adv-x="1024" />

    
    <glyph glyph-name="add" unicode="&#58881;" d="M510.12507762-71.58469632000003c-250.93545643 0-454.35920043 203.46473813-454.35920043 454.43255751S259.18962119 837.26531584 510.12507762 837.26531584c250.93761365 0 454.36135765-203.44963527 454.36135765-454.41745465S761.06269127-71.58469632000003 510.12507762-71.58469632000003zM510.12507762 780.4652908099999c-219.57095083 0-397.56349099-178.01843029-397.56349099-397.61742962S290.55412565-14.771726790000002 510.12507762-14.771726790000002s397.56349099 178.02058752 397.56349099 397.61958798S729.69602845 780.4652908099999 510.12507762 780.4652908099999zM680.51004643 354.44137643L538.52508957 354.44137643l0-142.00653369c0-15.67685859-12.71452331-28.39569749-28.39785472-28.39569749-15.68333141 0-28.39569749 12.7188389-28.3956975 28.39569749l0 142.00653369-141.98927246 0c-15.68333141 0-28.39785472 12.71668053-28.39785472 28.40648476 0 15.67901582 12.71668053 28.39569749 28.39785472 28.3956975l141.98927246 0 0 142.0130065c0 15.67685859 12.71452331 28.38922467 28.3956975 28.38922468 15.68548864 0 28.39785472-12.71020771 28.39785472-28.38922468l0-142.0130065 141.984958 0c15.68548864 0 28.39785472-12.71668053 28.39785472-28.3956975C708.90790115 367.15805695999995 696.19553507 354.44137643 680.51004643 354.44137643z"  horiz-adv-x="1024" />

    
    <glyph glyph-name="duomeitizhuanqu" unicode="&#59228;" d="M1008.64 807.936c0 40.96-34.304 74.24-75.776 74.24H87.04c-41.984 0-75.776-33.28-75.776-74.24v-844.288c0-40.96 34.304-74.24 75.776-74.24H932.864c41.984 0 75.776 33.28 75.776 74.24V807.936z m-944.64-11.776h109.568v-107.52h-109.568v107.52z m109.568-820.736h-109.568v107.52h109.568v-107.52z m0 142.848h-109.568v107.52h109.568v-107.52z m0 142.336h-109.568v107.52h109.568v-107.52z m0 142.848h-109.568v107.52h109.568v-107.52z m0 142.848h-109.568v107.52h109.568v-107.52z m621.056-575.488h-569.856V800.256h569.856v-829.44z m161.792 4.096H846.848v107.52h109.568v-107.52z m0 142.848H846.848v107.52h109.568v-107.52z m0 142.848H846.848v107.52h109.568v-107.52z m0 142.336H846.848v107.52h109.568v-107.52z m0 142.848H846.848v107.52h109.568v-107.52z m0 142.848H846.848V795.648h109.568v-107.008zM651.776 385.536l-259.072 146.944v-293.376z"  horiz-adv-x="1024" />

    


  </font>
</defs>
</svg>
